<?xml version="1.0" encoding="utf-8"?>
<!-- Generator: Adobe Illustrator 15.1.0, SVG Export Plug-In . SVG Version: 6.00 Build 0)  -->
<!DOCTYPE svg PUBLIC "-//W3C//DTD SVG 1.1//EN" "http://www.w3.org/Graphics/SVG/1.1/DTD/svg11.dtd">
<svg version="1.1" id="Calque_1" xmlns="http://www.w3.org/2000/svg" xmlns:xlink="http://www.w3.org/1999/xlink" x="0px" y="0px"
	 width="638.07px" height="915.755px" viewBox="191.07 -348.088 638.07 915.755"
	 enable-background="new 191.07 -348.088 638.07 915.755" xml:space="preserve">
<g id="Calque_2">
	<ellipse fill="none" cx="584.779" cy="533.724" rx="216.455" ry="20.525"/>
	<path fill="none" stroke="#000000" stroke-miterlimit="10" d="M400.403,4.05L724.49-56.364l27.358,113.118l29.854-13.47
		l0.743,3.134c3.732,23.623-0.674,58.518-13.171,74.003l-1.271,1.866c37.337,56.623-26.618,92.003-41.31,96.5
		c-72.796,37.228-309.48-28.688-309.48-28.688c-41.051-13.699-26.123-69.677-26.123-69.677v-7.464
		c-44.782,3.732-33.587-73.405-33.587-73.405l3.47,1.268l37.581,9.927l0.598-9.701"/>
	<path fill="none" stroke="#000000" stroke-miterlimit="10" d="M426.168,37.52c0,0-47.589-142.189,102.932-175.776
		C679.62-171.843,703.458-8.407,703.458-8.407l1.323,8.444"/>
	<polygon fill="none" stroke="#000000" stroke-miterlimit="10" points="336.37,-109.71 781.703,-214.201 634.915,-245.81 
		435.884,-194.296 	"/>
	<polygon fill="none" stroke="#000000" stroke-miterlimit="10" points="617.553,-275.154 603.865,-332.374 422.881,-295.545 
		435.884,-232.727 	"/>
	<path fill="none" stroke="#000000" stroke-miterlimit="10" d="M435.884-194.296c0,0-7.705-32.628-4.975-37.318
		s188.24-48.389,192.86-45.54s11.196,32.344,11.196,32.344L435.884-194.296"/>
	<path fill="none" stroke="#000000" stroke-miterlimit="10" d="M519.541-46.279"/>
	<line fill="none" stroke="#000000" stroke-miterlimit="10" x1="499.315" y1="207.487" x2="501.29" y2="231.036"/>
	<path fill="none" stroke="#000000" stroke-miterlimit="10" d="M699.719,294.733c29.068-4.563,13.47-82.309-21.957-49.305
		L699.719,294.733z"/>
	<polygon fill="none" stroke="#000000" stroke-miterlimit="10" points="501.815,437.63 501.815,501.071 453.3,528.44 
		537.172,528.44 554.68,437.63 	"/>
	<polygon fill="none" stroke="#000000" stroke-miterlimit="10" points="624.966,442.607 654.821,528.44 730.704,528.44 
		689.654,506.049 693.385,421.463 	"/>
	<path fill="none" stroke="#000000" stroke-miterlimit="10" d="M607.553,131.191"/>
	<path fill="none" stroke="#000000" stroke-miterlimit="10" d="M547.22,141.01"/>
	<polyline fill="none" stroke="#000000" stroke-miterlimit="10" points="574.925,361.316 551.82,437.63 503.99,437.63 
		509.497,368.63 	"/>
	<polyline fill="none" stroke="#000000" stroke-miterlimit="10" points="604.134,357.748 637.542,438.722 679.103,424.721 
		671.348,350.015 	"/>
	<path fill="none" stroke="#000000" stroke-miterlimit="10" d="M202.269-134.379l26.422,150.429
		c9.442,4.665,58.699,1.106,58.699,1.106l22.505-5.359c0,0,18.587-3.546,50.009-36.087L317.1-165.243l19.516,126.325v2.537
		c-1.753,6.939-9.665,15.933-32.02,25.004L257.314-154.12L285.678-5.109c0,0-32.993,3.987-40.923,0.255
		C236.825-8.585,202.269-134.379,202.269-134.379z"/>
	<polygon fill="none" stroke="#000000" stroke-miterlimit="10" points="329.515,47.95 322.686,50.45 298.95,58.511 292.197,60.49 
		283.501,18.43 318.32,9.101 	"/>
	<path fill="none" stroke="#000000" stroke-miterlimit="10" d="M379.896,523.462c-1.232-13.062-80.945-464.95-80.945-464.95
		l23.735-8.062c0,0,70.271,453.719,77.137,473.012C406.653,542.76,381.163,536.523,379.896,523.462z"/>
	<path fill="none" stroke="#000000" stroke-miterlimit="10" d="M347.344,264.678c-32.042,4.657-50.114-48.616-5.959-55.14
		C385.536,203.018,379.385,260.02,347.344,264.678z"/>
	<path fill="none" d="M695.777-57.744c5.291,0,9.584,4.676,9.584,10.441c0,5.762-4.293,10.438-9.584,10.438
		c-5.292,0-9.585-4.676-9.585-10.438C686.192-53.069,690.485-57.744,695.777-57.744z"/>
	<path fill="none" stroke="#000000" stroke-miterlimit="10" d="M501.37,232.031c-25.304,4.351-45.274-12.056-45.274-12.056
		l43.229-12.475L501.37,232.031z"/>
	<path fill="none" stroke="#000000" stroke-miterlimit="10" d="M701.061-26.228c0,0,41.662,123.836-108.858,157.423
		C441.682,164.781,422.203,21.178,422.203,21.178l-1.323-8.444"/>
	<path fill="none" stroke="#000000" stroke-miterlimit="10" d="M472.481,57.229c0,0,16.342,66.681,105.243,47.96
		c88.897-18.718,84.685-72.017,84.685-72.017L472.481,57.229z"/>
	<path fill="none" stroke="#000000" stroke-miterlimit="10" d="M476.056,18.157c-12.879,0-14.854-18.557,0-18.557
		C490.914-0.4,488.932,18.157,476.056,18.157z"/>
	<path fill="none" stroke="#000000" stroke-miterlimit="10" d="M657.051-0.397c-12.88,0-14.854-18.553,0-18.553
		C671.902-18.95,669.93-0.397,657.051-0.397z"/>
	<path fill="none" stroke="#000000" stroke-miterlimit="10" d="M399.069,43.38"/>
	<path fill="none" stroke="#000000" stroke-miterlimit="10" d="M399.149,41.048"/>
	<path fill="none" stroke="#000000" stroke-miterlimit="10" d="M684.322-52.468c0,0,11.549,39.786,32.694,38.543"/>
	<path fill="none" stroke="#000000" stroke-miterlimit="10" d="M726.695-46.651h-0.634c-99.491,5.598-120.688-89.192-120.688-89.192
		s-26.123,70.905-85.832,89.564c-59.71,18.659-85.833-2.464-85.833-2.464l1.232,9.406c2.201,40.154-28.514,73.179-35.792,80.384
		l5.638-166.814l288.581-67.694L726.695-46.651z"/>
</g>
<g id="Calque_3">
	<polygon fill="none" stroke="#000000" stroke-miterlimit="10" points="503.058,256.015 669.748,231.138 720.762,344.333 
		471.96,372.96 	"/>
	<polygon fill="none" stroke="#000000" stroke-miterlimit="10" points="505.546,144.045 368.324,217.862 369.968,244.805 
		499.315,207.487 503.058,256.015 669.748,231.138 663.531,178.893 702.715,203.769 690.367,237.811 712.573,249.062 
		741.881,200.023 666.016,121.654 	"/>
	<path fill="none" stroke="#000000" stroke-miterlimit="10" d="M611.463,129.478c0,0,13.75,42.782-27.5,48.893
		c-41.251,6.112-36.743-41.837-36.743-41.837L611.463,129.478z"/>
	<polygon fill="none" stroke="#000000" stroke-miterlimit="10" points="533.546,141.01 539.046,266.31 520.102,266.278 
		514.3,142.843 	"/>
	<polygon fill="none" stroke="#000000" stroke-miterlimit="10" points="633.235,248.901 625.534,127.321 644.529,124.672 
		648.738,248.901 	"/>
	<path fill="none" stroke="#000000" stroke-miterlimit="10" d="M529.887,288.232c-20.947-0.711-14.657-25.985,1.666-25.649
		C547.88,262.921,550.839,288.942,529.887,288.232z"/>
	<path fill="none" stroke="#000000" stroke-miterlimit="10" d="M639.915,272.783c-20.952-0.707-14.662-25.984,1.661-25.649
		C657.9,247.476,660.86,273.501,639.915,272.783z"/>
</g>
</svg>
