<?xml version="1.0" encoding="utf-8"?>
<!-- Generator: Adobe Illustrator 15.1.0, SVG Export Plug-In . SVG Version: 6.00 Build 0)  -->
<!DOCTYPE svg PUBLIC "-//W3C//DTD SVG 1.1//EN" "http://www.w3.org/Graphics/SVG/1.1/DTD/svg11.dtd">
<svg version="1.1" xmlns="http://www.w3.org/2000/svg" xmlns:xlink="http://www.w3.org/1999/xlink" x="0px" y="0px"
	 width="595.28px" height="841.89px" viewBox="0 0 595.28 841.89" enable-background="new 0 0 595.28 841.89" xml:space="preserve">
<g id="Calque_2">
	<path fill="none" stroke="#000000" stroke-miterlimit="10" d="M333,389.783c0,0,4,10.55,9.667,10.217"/>
	<path fill="none" stroke="#000000" stroke-miterlimit="10" d="M337.081,397.099c0,0,9.587,33.235-30.747,42.235
		s-43.667-29.929-43.667-29.929"/>
	<path fill="none" stroke="#000000" stroke-miterlimit="10" d="M258,414.333c0,0,10.334-7.948,9.667-20.141l-1.333-3.526
		c0,0,7,6.667,23,1.667s23-25,23-25S316,392,342.667,390.5"/>
	<polygon fill="none" stroke="#000000" stroke-miterlimit="10" points="239.667,374.333 359,346.333 319.667,338.667 
		266.333,351.667 	"/>
	<polyline fill="none" stroke="#000000" stroke-miterlimit="10" points="266.333,351.667 265,341.667 314,330 317,338.667 	"/>
	<polyline fill="none" stroke="#000000" stroke-miterlimit="10" points="266.333,340.833 262.849,325 308.667,315.667 312.334,330 	
		"/>
	<path fill="none" stroke="#000000" stroke-miterlimit="10" d="M350,460.334c0,0,16.5-9.417,3.333-23.833l0.334-0.501
		c3.35-4.154,6.529-12.5,5.529-18.833L359,416.333l-8,4.611l-15.666-69.059"/>
	<path fill="none" stroke="#000000" stroke-miterlimit="10" d="M258,370.032l-1.667,49.302l-10.069-2.667l-0.931-0.333
		c0,0-3,18.667,9,17.667v2c0,0-4,15,7,18.667"/>
	<polyline fill="none" stroke="#000000" stroke-miterlimit="10" points="340,473.334 348.334,459.334 328,438.334 285,444.334 
		248,464 	"/>
	<polyline fill="none" stroke="#000000" stroke-miterlimit="10" points="334,472 336.834,458.334 327.334,452.667 329,466.667 
		342.667,498 276,505.667 284.333,473.334 283.333,461.334 248.667,471.334 	"/>
	<polygon fill="none" stroke="#000000" stroke-miterlimit="10" points="284,523 284,540 271,547.334 293.475,547.334 298.167,523 	
		"/>
	<polygon fill="none" stroke="#000000" stroke-miterlimit="10" points="317,524.334 325,547.334 345.334,547.334 334.334,541.334 
		335.334,518.667 	"/>
	<path fill="none" stroke="#000000" stroke-miterlimit="10" d="M312.334,440.885"/>
	<path fill="none" stroke="#000000" stroke-miterlimit="10" d="M296.167,443.516"/>
	<line fill="none" stroke="#000000" stroke-miterlimit="10" x1="286.059" y1="504.51" x2="284.583" y2="523"/>
	<line fill="none" stroke="#000000" stroke-miterlimit="10" x1="303.591" y1="502.55" x2="297.4" y2="523"/>
	<line fill="none" stroke="#000000" stroke-miterlimit="10" x1="311.418" y1="501.594" x2="320.371" y2="523.292"/>
	<line fill="none" stroke="#000000" stroke-miterlimit="10" x1="329.429" y1="499.522" x2="331.507" y2="519.541"/>
	<polygon fill="none" stroke="#000000" stroke-miterlimit="10" points="251.333,546 256.667,546 236,419.25 237.833,418.583 
		234.833,408.167 225.5,410.667 227.833,421.945 229.644,421.411 	"/>
	<line fill="none" stroke="#000000" stroke-miterlimit="10" x1="229.644" y1="421.411" x2="236" y2="419.25"/>
	<path fill="none" stroke="#000000" stroke-miterlimit="10" d="M225.5,410.667c0,0-9.9-0.106-12.433-1.361l-7.078-40.308
		l11.772,35.39l0.373,0.373c13.411,0.521,25.034-7.302,25.854-10.505v-0.67l-7.227-32.857l11.474,37.774
		c-8.419,8.717-13.4,9.664-13.4,9.664"/>
	<polyline fill="none" stroke="#000000" stroke-miterlimit="10" points="228.341,403.635 220.741,363.708 233.408,401.965 	"/>
	<path fill="none" stroke="#000000" stroke-miterlimit="10" d="M296.167,442.775c0,0-1.208,12.849,9.846,11.211
		s7.369-13.102,7.369-13.102"/>
	<path fill="none" stroke="#000000" stroke-miterlimit="10" d="M291.523,482.966c-5.614-0.19-3.928-6.963,0.446-6.873
		C296.344,476.184,297.137,483.157,291.523,482.966z"/>
	<path fill="none" stroke="#000000" stroke-miterlimit="10" d="M321.006,478.827c-5.614-0.19-3.928-6.963,0.446-6.873
		C325.826,472.045,326.619,479.019,321.006,478.827z"/>
	<line fill="none" stroke="#000000" stroke-miterlimit="10" x1="287.346" y1="444.007" x2="288.901" y2="477.083"/>
	<line fill="none" stroke="#000000" stroke-miterlimit="10" x1="293.977" y1="477.092" x2="292.503" y2="443.516"/>
	<line fill="none" stroke="#000000" stroke-miterlimit="10" x1="317.153" y1="439.848" x2="319.216" y2="472.427"/>
	<line fill="none" stroke="#000000" stroke-miterlimit="10" x1="322.243" y1="439.138" x2="323.371" y2="472.427"/>
	<line fill="none" stroke="#000000" stroke-miterlimit="10" x1="284.333" y1="474.334" x2="329" y2="467.667"/>
	<path fill="none" stroke="#000000" stroke-miterlimit="10" d="M242.608,476.655c-8.586,1.248-13.429-13.028-1.597-14.776
		C252.842,460.132,251.194,475.407,242.608,476.655z"/>
	<path fill="none" stroke="#000000" stroke-miterlimit="10" d="M331.507,472.414c15.031-2.876,14.858,14.985,7.069,16.207"/>
	<path fill="none" stroke="#000000" stroke-miterlimit="10" d="M277.098,408.596c-3.451,0-3.981-4.972,0-4.972
		S280.548,408.596,277.098,408.596z"/>
	<path fill="none" stroke="#000000" stroke-miterlimit="10" d="M325.598,403.625c-3.451,0-3.98-4.972,0-4.972
		S329.049,403.625,325.598,403.625z"/>
	<path fill="none" stroke="#000000" stroke-miterlimit="10" d="M275.771,419.066c0,0,4.379,17.868,28.201,12.852
		s22.693-19.298,22.693-19.298L275.771,419.066z"/>
	<path fill="none" stroke="#000000" stroke-miterlimit="10" d="M271.75,464.676c0,0,5.352,4.397,12.132,3.231"/>
	<path fill="none" stroke="#000000" stroke-miterlimit="10" d="M335.624,464.17c-4.947,0.872-6.921,0-6.921,0"/>
</g>
<g id="Calque_6">
</g>
<g id="Calque_4">
</g>
<g id="Calque_5">
</g>
<g id="Calque_3">
</g>
</svg>
