<?xml version="1.0" encoding="utf-8"?>
<!-- Generator: Adobe Illustrator 15.1.0, SVG Export Plug-In . SVG Version: 6.00 Build 0)  -->
<!DOCTYPE svg PUBLIC "-//W3C//DTD SVG 1.1//EN" "http://www.w3.org/Graphics/SVG/1.1/DTD/svg11.dtd">
<svg version="1.1" xmlns="http://www.w3.org/2000/svg" xmlns:xlink="http://www.w3.org/1999/xlink" x="0px" y="0px"
	 width="595.28px" height="841.89px" viewBox="0 0 595.28 841.89" enable-background="new 0 0 595.28 841.89" xml:space="preserve">
<g id="Calque_2">
	<ellipse fill="#9D9D9C" cx="306.232" cy="548.75" rx="58.002" ry="5.5"/>
	<path fill="#F39200" stroke="#000000" stroke-miterlimit="10" d="M256.825,406.816l86.844-16.188L351,420.939l8-3.609l0.2,0.84
		c1,6.33-0.181,15.68-3.53,19.83l-0.34,0.5c10.004,15.172-7.133,24.653-11.07,25.858c-19.507,9.976-82.93-7.688-82.93-7.688
		c-11-3.67-7-18.67-7-18.67v-2c-12,1-9-19.67-9-19.67l0.93,0.34l10.07,2.66l0.16-2.6"/>
	<path fill="#FCE5E6" stroke="#000000" stroke-miterlimit="10" d="M263.73,415.785c0,0-12.752-38.102,27.582-47.102
		s46.722,34.795,46.722,34.795l0.354,2.263"/>
	<polyline fill="#E30613" stroke="#000000" stroke-miterlimit="10" points="266.333,353.667 265,343.667 314,332 317,340.667 	"/>
	<polygon fill="#E6D698" stroke="#000000" stroke-miterlimit="10" points="239.667,376.333 359,348.333 319.667,340.667 
		266.333,353.667 	"/>
	<polyline fill="#C6BA91" stroke="#000000" stroke-miterlimit="10" points="266.333,342.833 262.849,326 308.667,316.667 
		312.334,332 	"/>
	<path fill="#F9B233" stroke="#000000" stroke-miterlimit="10" d="M288.75,393.33"/>
	<line fill="#FFFFFF" stroke="#000000" stroke-miterlimit="10" x1="283.33" y1="461.33" x2="283.86" y2="467.64"/>
	<path fill="#FCE5E6" stroke="#000000" stroke-miterlimit="10" d="M337.032,484.708c7.789-1.222,3.609-22.055-5.884-13.211
		L337.032,484.708z"/>
	<polygon fill="#432918" stroke="#000000" stroke-miterlimit="10" points="284,523 284,540 271,547.334 293.475,547.334 
		298.167,523 	"/>
	<polygon fill="#432918" stroke="#000000" stroke-miterlimit="10" points="317,524.334 325,547.334 345.334,547.334 
		334.334,541.334 335.334,518.667 	"/>
	<path fill="#FFFFFF" stroke="#000000" stroke-miterlimit="10" d="M312.334,440.885"/>
	<path fill="#FFFFFF" stroke="#000000" stroke-miterlimit="10" d="M296.167,443.516"/>
	<polyline fill="#FCE5E6" stroke="#000000" stroke-miterlimit="10" points="303.591,502.55 297.4,523 284.583,523 286.059,504.51 	
		"/>
	<polyline fill="#FCE5E6" stroke="#000000" stroke-miterlimit="10" points="311.418,501.594 320.371,523.292 331.507,519.541 
		329.429,499.522 	"/>
	<path fill="#C6C6C6" stroke="#000000" stroke-miterlimit="10" d="M204.269,369.722l7.08,40.31c2.53,1.25,12.43,0.36,12.43,0.36
		l9.33-1.5c0,0,4.98-0.95,13.4-9.67l-11.47-37.77l5.23,33.85v0.68c-0.47,1.86-2.59,4.27-8.58,6.7l-12.67-38.25l7.6,39.93
		c0,0-8.84,1.068-10.965,0.068S204.269,369.722,204.269,369.722z"/>
	<polygon fill="#706F6F" stroke="#000000" stroke-miterlimit="10" points="237.83,418.58 236,419.25 229.64,421.41 227.83,421.94 
		225.5,410.67 234.83,408.17 	"/>
	<path fill="#432918" stroke="#000000" stroke-miterlimit="10" d="M251.33,546c-0.33-3.5-21.69-124.59-21.69-124.59l6.36-2.16
		c0,0,18.83,121.58,20.67,126.75C258.5,551.17,251.67,549.5,251.33,546z"/>
	<path fill="#FCE5E6" stroke="#000000" stroke-miterlimit="10" d="M242.608,476.655c-8.586,1.248-13.429-13.028-1.597-14.776
		C252.842,460.132,251.194,475.407,242.608,476.655z"/>
	<ellipse fill="#F39200" cx="335.975" cy="393.055" rx="2.568" ry="2.797"/>
	<path fill="#F39200" stroke="#000000" stroke-miterlimit="10" d="M283.881,467.907c-6.78,1.166-12.132-3.231-12.132-3.231
		l11.584-3.342L283.881,467.907z"/>
	<path fill="#FCE5E6" stroke="#000000" stroke-miterlimit="10" d="M337.391,398.703c0,0,11.164,33.183-29.17,42.183
		s-45.554-29.48-45.554-29.48l-0.354-2.263"/>
	<path fill="#FFFFFF" stroke="#000000" stroke-miterlimit="10" d="M276.14,421.066c0,0,4.379,17.868,28.201,12.852
		s22.693-19.298,22.693-19.298L276.14,421.066z"/>
	<path stroke="#000000" stroke-miterlimit="10" d="M277.098,410.596c-3.451,0-3.981-4.972,0-4.972S280.548,410.596,277.098,410.596z
		"/>
	<path stroke="#000000" stroke-miterlimit="10" d="M325.598,405.625c-3.451,0-3.98-4.972,0-4.972S329.049,405.625,325.598,405.625z"
		/>
	<path fill="none" stroke="#000000" stroke-miterlimit="10" d="M256.468,417.355"/>
	<path fill="none" stroke="#000000" stroke-miterlimit="10" d="M256.49,416.73"/>
	<path fill="#F39200" stroke="#000000" stroke-miterlimit="10" d="M332.906,391.672c0,0,3.094,10.661,8.761,10.328"/>
	<path fill="#F9B233" stroke="#000000" stroke-miterlimit="10" d="M344.26,393.23h-0.17c-26.66,1.5-32.34-23.9-32.34-23.9
		s-7,19-23,24s-23-0.66-23-0.66l0.33,2.52c0.59,10.76-7.64,19.61-9.59,21.54l1.51-44.7l77.33-18.14L344.26,393.23z"/>
</g>
<g id="Calque_3">
	<polygon fill="#006633" stroke="#000000" stroke-miterlimit="10" points="284.333,474.334 329,467.667 342.67,498 276,505.67 	"/>
	<polygon fill="#95C11F" stroke="#000000" stroke-miterlimit="10" points="285,444.33 248.23,464.11 248.67,471.33 283.33,461.33 
		284.333,474.334 329,467.667 327.334,453.667 337.834,460.334 334.526,469.456 340.476,472.47 348.33,459.33 328,438.33 	"/>
	<path fill="#FCE5E6" stroke="#000000" stroke-miterlimit="10" d="M313.382,440.426c0,0,3.685,11.464-7.369,13.102
		s-9.846-11.211-9.846-11.211L313.382,440.426z"/>
	<polygon fill="#7D4E24" stroke="#000000" stroke-miterlimit="10" points="292.503,443.516 293.977,477.092 288.901,477.083 
		287.346,444.007 	"/>
	<polygon fill="#7D4E24" stroke="#000000" stroke-miterlimit="10" points="319.216,472.427 317.153,439.848 322.243,439.138 
		323.371,472.427 	"/>
	<path fill="#FFDE00" stroke="#000000" stroke-miterlimit="10" d="M291.523,482.966c-5.614-0.19-3.928-6.963,0.446-6.873
		C296.344,476.184,297.137,483.157,291.523,482.966z"/>
	<path fill="#FFDE00" stroke="#000000" stroke-miterlimit="10" d="M321.006,478.827c-5.614-0.19-3.928-6.963,0.446-6.873
		C325.826,472.045,326.619,479.019,321.006,478.827z"/>
</g>
</svg>
