<?xml version="1.0" encoding="utf-8"?>
<!-- Generator: Adobe Illustrator 15.1.0, SVG Export Plug-In . SVG Version: 6.00 Build 0)  -->
<!DOCTYPE svg PUBLIC "-//W3C//DTD SVG 1.1//EN" "http://www.w3.org/Graphics/SVG/1.1/DTD/svg11.dtd">
<svg version="1.1" id="Calque_1" xmlns="http://www.w3.org/2000/svg" xmlns:xlink="http://www.w3.org/1999/xlink" x="0px" y="0px"
	 width="638.07px" height="915.756px" viewBox="0 0 638.07 915.756" enable-background="new 0 0 638.07 915.756"
	 xml:space="preserve">
<g id="Calque_2">
	<ellipse fill="#9D9D9C" cx="584.779" cy="533.724" rx="216.455" ry="20.525"/>
	<path fill="#F39200" d="M400.403,4.05L724.49-56.364l27.358,113.117l29.854-13.47l0.743,3.134
		c3.732,23.623-0.674,58.519-13.171,74.003l-1.271,1.866c37.338,56.623-26.617,92.003-41.31,96.5
		c-72.796,37.229-309.479-28.688-309.479-28.688c-41.052-13.699-26.123-69.678-26.123-69.678v-7.464
		c-44.782,3.732-33.588-73.404-33.588-73.404l3.471,1.268l37.581,9.927l0.598-9.701"/>
	<path fill="#FCE5E6" d="M426.169,37.52c0,0-47.59-142.189,102.932-175.776C679.62-171.843,703.458-8.406,703.458-8.406l1.323,8.443
		"/>
	<polygon fill="#E6D698" points="336.37,-109.71 781.703,-214.201 634.915,-245.81 435.885,-194.296 	"/>
	<polygon fill="#C6BA91" points="617.553,-275.154 603.865,-332.374 422.882,-295.545 435.885,-232.727 	"/>
	<path fill="#E30613" d="M435.885-194.296c0,0-7.705-32.628-4.976-37.317c2.73-4.69,188.24-48.39,192.86-45.54
		c4.62,2.849,11.196,32.344,11.196,32.344L435.885-194.296"/>
	<path fill="#F9B233" d="M519.542-46.279"/>
	<line fill="none" x1="499.315" y1="207.487" x2="501.29" y2="231.036"/>
	<path fill="#FCE5E6" d="M699.719,294.733c29.067-4.563,13.47-82.31-21.957-49.305L699.719,294.733z"/>
	<polygon fill="#432918" points="501.815,437.631 501.815,501.071 453.301,528.44 537.173,528.44 554.68,437.631 	"/>
	<polygon fill="#432918" points="624.967,442.607 654.821,528.44 730.704,528.44 689.654,506.05 693.385,421.464 	"/>
	<path fill="#FFFFFF" d="M607.553,131.191"/>
	<path fill="#FFFFFF" d="M547.22,141.01"/>
	<polyline fill="#FCE5E6" points="574.926,361.316 551.82,437.631 503.99,437.631 509.497,368.63 	"/>
	<polyline fill="#FCE5E6" points="604.135,357.748 637.542,438.722 679.103,424.721 671.348,350.015 	"/>
	<path fill="#C6C6C6" d="M202.269-134.379L228.691,16.05c9.441,4.665,58.699,1.106,58.699,1.106l22.505-5.359
		c0,0,18.587-3.546,50.009-36.087L317.1-165.243l19.516,126.325v2.537c-1.753,6.939-9.665,15.934-32.02,25.004L257.314-154.12
		L285.678-5.109c0,0-32.993,3.986-40.924,0.255C236.825-8.585,202.269-134.379,202.269-134.379z"/>
	<polygon fill="#706F6F" points="329.515,47.95 322.686,50.45 298.95,58.511 292.197,60.49 283.501,18.43 318.32,9.101 	"/>
	<path fill="#432918" d="M379.896,523.463c-1.232-13.062-80.945-464.95-80.945-464.95l23.735-8.062
		c0,0,70.271,453.72,77.137,473.013C406.653,542.76,381.163,536.523,379.896,523.463z"/>
	<path fill="#FCE5E6" d="M347.344,264.678c-32.042,4.656-50.114-48.616-5.959-55.141
		C385.536,203.018,379.385,260.02,347.344,264.678z"/>
	<path fill="#F39200" d="M695.777-57.744c5.291,0,9.584,4.677,9.584,10.441c0,5.762-4.293,10.438-9.584,10.438
		c-5.292,0-9.585-4.677-9.585-10.438C686.192-53.069,690.485-57.744,695.777-57.744z"/>
	<path fill="#F39200" d="M501.37,232.031c-25.304,4.351-45.273-12.056-45.273-12.056l43.229-12.476L501.37,232.031z"/>
	<path fill="#FCE5E6" d="M701.061-26.228c0,0,41.662,123.836-108.858,157.423c-150.521,33.586-170-110.017-170-110.017l-1.322-8.444
		"/>
	<path fill="#FFFFFF" d="M472.481,57.229c0,0,16.342,66.681,105.243,47.96c88.896-18.718,84.685-72.018,84.685-72.018
		L472.481,57.229z"/>
	<path d="M476.056,18.157c-12.879,0-14.854-18.557,0-18.557C490.914-0.4,488.932,18.157,476.056,18.157z"/>
	<path d="M657.052-0.397c-12.88,0-14.854-18.553,0-18.553C671.902-18.949,669.93-0.397,657.052-0.397z"/>
	<path fill="none" d="M399.069,43.38"/>
	<path fill="none" d="M399.149,41.048"/>
	<path fill="#F39200" d="M684.322-52.468c0,0,11.549,39.786,32.694,38.543"/>
	<path fill="#F9B233" d="M726.695-46.651h-0.634c-99.491,5.598-120.688-89.192-120.688-89.192s-26.123,70.905-85.832,89.564
		c-59.711,18.658-85.834-2.465-85.834-2.465l1.232,9.406c2.201,40.154-28.514,73.179-35.792,80.384l5.638-166.813l288.581-67.694
		L726.695-46.651z"/>
</g>
<g id="Calque_3">
	<polygon fill="#006633" points="503.058,256.015 669.748,231.138 720.762,344.333 471.96,372.96 	"/>
	<polygon fill="#95C11F" points="505.547,144.045 368.324,217.862 369.969,244.805 499.315,207.487 503.058,256.015 
		669.748,231.138 663.531,178.893 702.716,203.769 690.367,237.811 712.573,249.062 741.882,200.023 666.016,121.654 	"/>
	<path fill="#FCE5E6" d="M611.464,129.478c0,0,13.75,42.782-27.5,48.893c-41.251,6.112-36.743-41.837-36.743-41.837L611.464,129.478
		z"/>
	<polygon fill="#7D4E24" points="533.547,141.01 539.047,266.31 520.102,266.278 514.301,142.844 	"/>
	<polygon fill="#7D4E24" points="633.235,248.901 625.534,127.321 644.529,124.672 648.738,248.901 	"/>
	<path fill="#FFDE00" d="M529.887,288.232c-20.947-0.711-14.657-25.985,1.666-25.649
		C547.881,262.921,550.84,288.942,529.887,288.232z"/>
	<path fill="#FFDE00" d="M639.915,272.783c-20.951-0.707-14.661-25.984,1.661-25.649C657.9,247.476,660.86,273.501,639.915,272.783z
		"/>
</g>
</svg>
